{
  "accessors": [
    {
      "bufferView": 2,
      "componentType": 5126,
      "count": 840,
      "max": [
        0.13122518360614777,
        0.05682380869984627,
        0.09021002054214478
      ],
      "min": [
        -0.1311040073633194,
        -0.09240719676017761,
        -0.0011205699993297458
      ],
      "type": "VEC3"
    },
    {
      "bufferView": 2,
      "byteOffset": 10080,
      "componentType": 5126,
      "count": 840,
      "max": [
        0.9998801946640015,
        0.9856748580932617,
        0.9997633695602417
      ],
      "min": [
        -0.9998802542686462,
        -0.9957927465438843,
        -0.9998896718025208
      ],
      "type": "VEC3"
    },
    {
      "bufferView": 1,
      "componentType": 5126,
      "count": 840,
      "max": [
        0.9943689703941345,
        0.9949964880943298
      ],
      "min": [
        0.013717900030314922,
        0.00852978229522705
      ],
      "type": "VEC2"
    },
    {
      "bufferView": 0,
      "componentType": 5125,
      "count": 2796,
      "type": "SCALAR"
    },
    {
      "bufferView": 2,
      "byteOffset": 20160,
      "componentType": 5126,
      "count": 1326,
      "max": [
        0.13696326315402985,
        0.08514406532049179,
        0.5302732586860657
      ],
      "min": [
        -0.13647499680519104,
        -0.06671140342950821,
        0.0010213899658992887
      ],
      "type": "VEC3"
    },
    {
      "bufferView": 2,
      "byteOffset": 36072,
      "componentType": 5126,
      "count": 1326,
      "max": [
        0.9997923374176025,
        0.9996806383132935,
        0.9998418092727661
      ],
      "min": [
        -0.9999598264694214,
        -0.9994783401489258,
        -0.988592267036438
      ],
      "type": "VEC3"
    },
    {
      "bufferView": 1,
      "byteOffset": 6720,
      "componentType": 5126,
      "count": 1326,
      "max": [
        0.992983877658844,
        0.9927650690078735
      ],
      "min": [
        0.006271460093557835,
        0.007019162178039551
      ],
      "type": "VEC2"
    },
    {
      "bufferView": 0,
      "byteOffset": 11184,
      "componentType": 5125,
      "count": 5547,
      "type": "SCALAR"
    },
    {
      "bufferView": 2,
      "byteOffset": 51984,
      "componentType": 5126,
      "count": 2426,
      "max": [
        0.2922370433807373,
        0.0706787034869194,
        0.776856005191803
      ],
      "min": [
        -0.2919920086860657,
        -0.05444340035319328,
        0.42041000723838806
      ],
      "type": "VEC3"
    },
    {
      "bufferView": 2,
      "byteOffset": 81096,
      "componentType": 5126,
      "count": 2426,
      "max": [
        0.9999800324440002,
        0.9998458027839661,
        0.952267587184906
      ],
      "min": [
        -0.9999799728393555,
        -0.9999048709869385,
        -0.9812510013580322
      ],
      "type": "VEC3"
    },
    {
      "bufferView": 1,
      "byteOffset": 17328,
      "componentType": 5126,
      "count": 2426,
      "max": [
        0.9950287342071533,
        0.9928879737854004
      ],
      "min": [
        0.0041962298564612865,
        0.004013121128082275
      ],
      "type": "VEC2"
    },
    {
      "bufferView": 0,
      "byteOffset": 33372,
      "componentType": 5125,
      "count": 11067,
      "type": "SCALAR"
    },
    {
      "bufferView": 2,
      "byteOffset": 110208,
      "componentType": 5126,
      "count": 2865,
      "max": [
        0.05416863411664963,
        0.06823735684156418,
        0.8837887048721313
      ],
      "min": [
        -0.05255129933357239,
        -0.04379269853234291,
        0.7749019861221313
      ],
      "type": "VEC3"
    },
    {
      "bufferView": 2,
      "byteOffset": 144588,
      "componentType": 5126,
      "count": 2865,
      "max": [
        0.9988719820976257,
        0.9980990886688232,
        0.9988492727279663
      ],
      "min": [
        -0.9981186985969543,
        -0.9979745149612427,
        -0.9991894364356995
      ],
      "type": "VEC3"
    },
    {
      "bufferView": 1,
      "byteOffset": 36736,
      "componentType": 5126,
      "count": 2865,
      "max": [
        0.9939281940460205,
        0.9894126653671265
      ],
      "min": [
        0.008911269716918468,
        0.0032654404640197754
      ],
      "type": "VEC2"
    },
    {
      "bufferView": 0,
      "byteOffset": 77640,
      "componentType": 5125,
      "count": 10557,
      "type": "SCALAR"
    },
    {
      "bufferView": 2,
      "byteOffset": 178968,
      "componentType": 5126,
      "count": 1985,
      "max": [
        0.05169679969549179,
        0.039550699293613434,
        0.04553220793604851
      ],
      "min": [
        -0.037262000143527985,
        -0.05111689865589142,
        -0.04553220048546791
      ],
      "type": "VEC3"
    },
    {
      "bufferView": 2,
      "byteOffset": 202788,
      "componentType": 5126,
      "count": 1985,
      "max": [
        0.9999854564666748,
        0.9951381683349609,
        0.9999885559082031
      ],
      "min": [
        -0.9949687123298645,
        -0.9980504512786865,
        -0.999987006187439
      ],
      "type": "VEC3"
    },
    {
      "bufferView": 1,
      "byteOffset": 59656,
      "componentType": 5126,
      "count": 1985,
      "max": [
        0.9965656399726868,
        0.9929433465003967
      ],
      "min": [
        0.0034314400982111692,
        0.008606314659118652
      ],
      "type": "VEC2"
    },
    {
      "bufferView": 0,
      "byteOffset": 119868,
      "componentType": 5125,
      "count": 8910,
      "type": "SCALAR"
    }
  ],
  "asset": {
    "extras": {
      "author": "KAKASHI (https://sketchfab.com/amansoyal781)",
      "license": "CC-BY-4.0 (http://creativecommons.org/licenses/by/4.0/)",
      "source": "https://sketchfab.com/3d-models/freefire-new-sukuna-3d-model-d5bb39bca3b34641b07998ad237a3db4",
      "title": "Freefire new sukuna 3d model"
    },
    "generator": "Sketchfab-16.99.0",
    "version": "2.0"
  },
  "bufferViews": [
    {
      "buffer": 0,
      "byteLength": 155508,
      "name": "floatBufferViews",
      "target": 34963
    },
    {
      "buffer": 0,
      "byteLength": 75536,
      "byteOffset": 155508,
      "byteStride": 8,
      "name": "floatBufferViews",
      "target": 34962
    },
    {
      "buffer": 0,
      "byteLength": 226608,
      "byteOffset": 231044,
      "byteStride": 12,
      "name": "floatBufferViews",
      "target": 34962
    }
  ],
  "buffers": [
    {
      "byteLength": 457652,
      "uri": "scene.bin"
    }
  ],
  "extensionsUsed": [
    "KHR_materials_unlit"
  ],
  "images": [
    {
      "uri": "textures/mat0.015_baseColor.png"
    },
    {
      "uri": "textures/mat0.016_baseColor.png"
    },
    {
      "uri": "textures/mat0.017_baseColor.png"
    },
    {
      "uri": "textures/mat0.018_baseColor.png"
    },
    {
      "uri": "textures/mat0.019_baseColor.png"
    }
  ],
  "materials": [
    {
      "doubleSided": true,
      "extensions": {
        "KHR_materials_unlit": {}
      },
      "name": "mat0.015",
      "pbrMetallicRoughness": {
        "baseColorTexture": {
          "index": 0
        },
        "metallicFactor": 0.0
      }
    },
    {
      "doubleSided": true,
      "extensions": {
        "KHR_materials_unlit": {}
      },
      "name": "mat0.016",
      "pbrMetallicRoughness": {
        "baseColorTexture": {
          "index": 1
        },
        "metallicFactor": 0.0
      }
    },
    {
      "doubleSided": true,
      "extensions": {
        "KHR_materials_unlit": {}
      },
      "name": "mat0.017",
      "pbrMetallicRoughness": {
        "baseColorTexture": {
          "index": 2
        },
        "metallicFactor": 0.0
      }
    },
    {
      "doubleSided": true,
      "extensions": {
        "KHR_materials_unlit": {}
      },
      "name": "mat0.018",
      "pbrMetallicRoughness": {
        "baseColorTexture": {
          "index": 3
        },
        "metallicFactor": 0.0
      }
    },
    {
      "doubleSided": true,
      "extensions": {
        "KHR_materials_unlit": {}
      },
      "name": "mat0.019",
      "pbrMetallicRoughness": {
        "baseColorTexture": {
          "index": 4
        },
        "metallicFactor": 0.0
      }
    }
  ],
  "meshes": [
    {
      "name": "Object_0",
      "primitives": [
        {
          "attributes": {
            "NORMAL": 1,
            "POSITION": 0,
            "TEXCOORD_0": 2
          },
          "indices": 3,
          "material": 0,
          "mode": 4
        }
      ]
    },
    {
      "name": "Object_1",
      "primitives": [
        {
          "attributes": {
            "NORMAL": 5,
            "POSITION": 4,
            "TEXCOORD_0": 6
          },
          "indices": 7,
          "material": 1,
          "mode": 4
        }
      ]
    },
    {
      "name": "Object_2",
      "primitives": [
        {
          "attributes": {
            "NORMAL": 9,
            "POSITION": 8,
            "TEXCOORD_0": 10
          },
          "indices": 11,
          "material": 2,
          "mode": 4
        }
      ]
    },
    {
      "name": "Object_3",
      "primitives": [
        {
          "attributes": {
            "NORMAL": 13,
            "POSITION": 12,
            "TEXCOORD_0": 14
          },
          "indices": 15,
          "material": 3,
          "mode": 4
        }
      ]
    },
    {
      "name": "Object_4",
      "primitives": [
        {
          "attributes": {
            "NORMAL": 17,
            "POSITION": 16,
            "TEXCOORD_0": 18
          },
          "indices": 19,
          "material": 4,
          "mode": 4
        }
      ]
    }
  ],
  "nodes": [
    {
      "children": [
        1
      ],
      "matrix": [
        1.0,
        0.0,
        0.0,
        0.0,
        0.0,
        2.220446049250313e-16,
        -1.0,
        0.0,
        0.0,
        1.0,
        2.220446049250313e-16,
        0.0,
        0.0,
        0.0,
        0.0,
        1.0
      ],
      "name": "Sketchfab_model"
    },
    {
      "children": [
        2
      ],
      "name": "root"
    },
    {
      "children": [
        3
      ],
      "matrix": [
        1.0,
        0.0,
        0.0,
        0.0,
        0.0,
        2.220446049250313e-16,
        1.0,
        0.0,
        0.0,
        -1.0,
        2.220446049250313e-16,
        0.0,
        0.0,
        0.0,
        0.0,
        1.0
      ],
      "name": "GLTF_SceneRootNode"
    },
    {
      "children": [
        4
      ],
      "matrix": [
        0.009999999776482582,
        0.0,
        0.0,
        0.0,
        0.0,
        0.009999999776482582,
        0.0,
        0.0,
        0.0,
        0.0,
        0.009999999776482582,
        0.0,
        0.0,
        0.0,
        0.0,
        1.0
      ],
      "name": "FreeFire New Male 3d Model By PaceGaming_11"
    },
    {
      "children": [
        5,
        8,
        11,
        14,
        17
      ],
      "name": "RootNode_10"
    },
    {
      "children": [
        6
      ],
      "matrix": [
        6408.580078125,
        0.0,
        -0.0,
        0.0,
        -0.0,
        -118.3442818897179,
        -6407.490210602518,
        0.0,
        0.0,
        6407.490210602518,
        -118.3442818897179,
        0.0,
        0.0,
        0.0,
        0.0,
        1.0
      ],
      "name": "Mesh_0422.rip_1"
    },
    {
      "children": [
        7
      ],
      "name": "Mesh_0422.rip_mat0.015_0_0"
    },
    {
      "mesh": 0,
      "name": "Object_7"
    },
    {
      "children": [
        9
      ],
      "matrix": [
        6408.580078125,
        0.0,
        -0.0,
        0.0,
        -0.0,
        -118.3442818897179,
        -6407.490210602518,
        0.0,
        0.0,
        6407.490210602518,
        -118.3442818897179,
        0.0,
        0.0,
        0.0,
        0.0,
        1.0
      ],
      "name": "Mesh_0430.rip_3"
    },
    {
      "children": [
        10
      ],
      "name": "Mesh_0430.rip_mat0.016_0_2"
    },
    {
      "mesh": 1,
      "name": "Object_10"
    },
    {
      "children": [
        12
      ],
      "matrix": [
        6408.580078125,
        0.0,
        -0.0,
        0.0,
        -0.0,
        -118.3442818897179,
        -6407.490210602518,
        0.0,
        0.0,
        6407.490210602518,
        -118.3442818897179,
        0.0,
        0.0,
        0.0,
        0.0,
        1.0
      ],
      "name": "Mesh_0435.rip_5"
    },
    {
      "children": [
        13
      ],
      "name": "Mesh_0435.rip_mat0.017_0_4"
    },
    {
      "mesh": 2,
      "name": "Object_13"
    },
    {
      "children": [
        15
      ],
      "matrix": [
        6408.580078125,
        0.0,
        -0.0,
        0.0,
        -0.0,
        -118.3442818897179,
        -6407.490210602518,
        0.0,
        0.0,
        6407.490210602518,
        -118.3442818897179,
        0.0,
        0.0,
        0.0,
        0.0,
        1.0
      ],
      "name": "Mesh_0438.rip_7"
    },
    {
      "children": [
        16
      ],
      "name": "Mesh_0438.rip_mat0.018_0_6"
    },
    {
      "mesh": 3,
      "name": "Object_16"
    },
    {
      "children": [
        18
      ],
      "matrix": [
        -101.76753043072736,
        978.958901599705,
        6441.0797989367975,
        0.0,
        250.13517303587554,
        6437.70016573123,
        -974.493165769324,
        0.0,
        -6510.240058544562,
        232.04486050180057,
        -138.127994497885,
        0.0,
        11.477700233459473,
        5136.81982421875,
        -118.40899658203125,
        1.0
      ],
      "name": "Mesh_0444.rip_9"
    },
    {
      "children": [
        19
      ],
      "name": "Mesh_0444.rip_mat0.019_0_8"
    },
    {
      "mesh": 4,
      "name": "Object_19"
    }
  ],
  "samplers": [
    {
      "magFilter": 9729,
      "minFilter": 9987,
      "wrapS": 10497,
      "wrapT": 10497
    }
  ],
  "scene": 0,
  "scenes": [
    {
      "name": "Sketchfab_Scene",
      "nodes": [
        0
      ]
    }
  ],
  "textures": [
    {
      "sampler": 0,
      "source": 0
    },
    {
      "sampler": 0,
      "source": 1
    },
    {
      "sampler": 0,
      "source": 2
    },
    {
      "sampler": 0,
      "source": 3
    },
    {
      "sampler": 0,
      "source": 4
    }
  ]
}
